<svg width="213" height="82" viewBox="0 0 213 82" fill="none" xmlns="http://www.w3.org/2000/svg">
<path d="M38.6 69.9C40.3 70.2 41.6 70.8 42.5 71.7C43.4 72.5 43.8 73.6 43.8 74.9C43.8 76.4 43.3 77.6 42.3 78.4C41.3 79.2 39.8 79.5 37.7 79.5H29V78.3H29.2C30.1 78.2 30.5 78.1 30.7 77.9C30.9 77.7 30.9 77 30.9 75.9V64.6C30.9 63.5 30.8 62.8 30.7 62.6C30.5 62.4 30 62.2 29.2 62.2H29V61H37.6C39.4 61 40.7 61.3 41.6 62C42.5 62.7 42.9 63.7 42.9 65.1C42.9 66.2 42.5 67.1 41.8 67.9C41.2 68.7 40.1 69.4 38.6 69.9ZM34.7 69.4H35.5C36.7 69.4 37.7 69.1 38.3 68.5C38.9 67.9 39.2 66.9 39.2 65.7C39.2 64.6 38.9 63.7 38.3 63.1C37.7 62.5 36.7 62.2 35.5 62.2H34.7V69.4ZM34.7 70.7V76C34.7 77 34.8 77.6 35 77.8C35.2 78.1 35.7 78.2 36.5 78.2C37.5 78.2 38.3 77.9 38.9 77.2C39.5 76.5 39.8 75.7 39.8 74.7C39.8 73.5 39.4 72.5 38.6 71.8C37.8 71.1 36.7 70.7 35.5 70.7H34.7Z" fill="#232323"/>
<path d="M62.7 73.9L61.7 75.9C61.2 76.9 61 77.6 61 77.9C61 78.2 61.3 78.3 61.8 78.3C61.9 78.3 62 78.3 62.3 78.4H62.5V79.6H57.6V78.4H57.8C58.5 78.3 58.9 78.2 59.1 78.1C59.3 77.9 59.7 77.2 60.2 76L67.1 61H68.4L75.4 76C76 77.2 76.4 78 76.6 78.1C76.8 78.3 77.2 78.4 77.9 78.4H78.1V79.6H70.4V78.4H70.6C71.7 78.3 72.2 78.2 72.2 77.9C72.2 77.7 72 77 71.5 75.9L70.6 73.9H62.7ZM63.3 72.7H69.9L66.5 65.5L63.3 72.7Z" fill="#232323"/>
<path d="M92 79.3V75.4H93.9V75.7C94 76.8 94.2 77.5 94.6 77.8C95.4 78.4 96.3 78.7 97.3 78.7C98.3 78.7 99.1 78.4 99.7 77.8C100.3 77.2 100.6 76.4 100.6 75.4C100.6 74.6 100.4 74 100 73.5C99.6 73 98.9 72.5 97.9 71.9L96.7 71.2C93.6 69.5 92.1 67.6 92.1 65.6C92.1 64 92.7 62.8 93.8 61.8C94.9 60.8 96.4 60.4 98.2 60.4C99.7 60.4 101.3 60.7 103.2 61.2V64.9H101.3V64.7C101.2 63.5 101.1 62.8 100.8 62.5C100.2 61.9 99.4 61.6 98.5 61.6C97.7 61.6 97 61.9 96.5 62.5C95.9 63.1 95.7 63.8 95.7 64.6C95.7 65.3 95.9 65.8 96.3 66.2C96.7 66.6 97.4 67.2 98.4 67.7L99.7 68.4C101.5 69.5 102.8 70.4 103.5 71.2C104.2 72 104.5 73 104.5 74.2C104.5 75.9 103.9 77.2 102.6 78.2C101.3 79.2 99.6 79.7 97.5 79.7C95.7 80 94 79.7 92 79.3Z" fill="#232323"/>
<path d="M126.2 79.5H118.3V78.3H118.5C119.4 78.2 119.8 78.1 120 77.9C120.2 77.7 120.2 77 120.2 75.9V64.6C120.2 63.5 120.1 62.8 120 62.6C119.8 62.4 119.3 62.2 118.5 62.2H118.3V61H126.2V62.2H126C125.1 62.3 124.6 62.4 124.5 62.6C124.3 62.8 124.3 63.5 124.3 64.6V75.9C124.3 77 124.4 77.7 124.5 77.9C124.7 78.1 125.2 78.3 126 78.3H126.2V79.5Z" fill="#232323"/>
<path d="M156.6 78.8C154.7 79.6 152.6 80 150.4 80C147.3 80 144.9 79.1 143.1 77.4C141.4 75.7 140.5 73.3 140.5 70.2C140.5 67.1 141.4 64.7 143 63C144.7 61.3 147.1 60.5 150.2 60.5C152.1 60.5 154.1 60.8 156.2 61.3V65.1H154.3V65C154.3 63.9 154.1 63.2 153.7 62.9C152.9 62.2 151.7 61.8 150.2 61.8C148.4 61.8 147 62.5 146 64C145 65.5 144.5 67.5 144.5 70.2C144.5 72.9 145.1 75 146.2 76.4C147.3 77.8 149 78.5 151.2 78.5C152.7 78.5 154.5 78 156.5 77.1L156.6 78.8Z" fill="#232323"/>
<path d="M171.8 79.3V75.4H173.7V75.7C173.8 76.8 174 77.5 174.4 77.8C175.2 78.4 176.1 78.7 177.1 78.7C178.1 78.7 178.9 78.4 179.5 77.8C180.1 77.2 180.4 76.4 180.4 75.4C180.4 74.6 180.2 74 179.8 73.5C179.4 73 178.7 72.5 177.7 71.9L176.5 71.2C173.4 69.5 171.9 67.6 171.9 65.6C171.9 64 172.5 62.8 173.6 61.8C174.7 60.8 176.2 60.4 178 60.4C179.5 60.4 181.1 60.7 183 61.2V64.9H181V64.7C180.9 63.5 180.8 62.8 180.5 62.5C179.9 61.9 179.1 61.6 178.2 61.6C177.4 61.6 176.7 61.9 176.2 62.5C175.6 63.1 175.4 63.8 175.4 64.6C175.4 65.3 175.6 65.8 176 66.2C176.4 66.6 177.1 67.2 178.1 67.7L179.4 68.4C181.2 69.5 182.5 70.4 183.2 71.2C183.9 72 184.2 73 184.2 74.2C184.2 75.9 183.6 77.2 182.3 78.2C181 79.2 179.3 79.7 177.2 79.7C175.5 80 173.8 79.7 171.8 79.3Z" fill="#232323"/>
<path d="M90.6 48C87.9 48 85.4 47.4 83.1 46.3C80.8 45.2 78.9 43.7 77.3 41.9C75.7 40.1 74.4 38 73.5 35.7C72.6 33.4 72.2 31 72.2 28.5C72.2 25.9 72.7 23.5 73.6 21.2C74.5 18.9 75.8 16.8 77.5 15C79.1 13.2 81.1 11.8 83.3 10.7C85.6 9.6 88 9.1 90.7 9.1C93.4 9.1 95.9 9.7 98.2 10.8C100.5 11.9 102.4 13.4 104 15.3C105.6 17.1 106.9 19.2 107.7 21.5C108.6 23.8 109 26.2 109 28.6C109 31.2 108.5 33.6 107.6 35.9C106.7 38.2 105.4 40.3 103.7 42.1C102 43.9 100.1 45.3 97.8 46.4C95.7 47.5 93.2 48 90.6 48ZM78.4 28.6C78.4 30.4 78.7 32.1 79.3 33.8C79.9 35.5 80.7 37 81.8 38.3C82.9 39.6 84.2 40.6 85.7 41.4C87.2 42.2 88.9 42.6 90.8 42.6C92.7 42.6 94.5 42.2 96 41.4C97.5 40.6 98.8 39.5 99.8 38.2C100.8 36.9 101.6 35.4 102.2 33.7C102.7 32 103 30.3 103 28.6C103 26.8 102.7 25 102.1 23.3C101.5 21.6 100.7 20.1 99.6 18.9C98.5 17.7 97.3 16.6 95.8 15.8C94.3 15 92.6 14.6 90.8 14.6C88.9 14.6 87.1 15 85.6 15.8C84.1 16.6 82.8 17.7 81.8 19C80.8 20.3 80 21.8 79.4 23.5C78.7 25.1 78.4 26.8 78.4 28.6Z" fill="#2767B1"/>
<path d="M120.7 47.7V9.4H134.3C137.4 9.4 140.1 9.9 142.4 10.9C144.7 11.9 146.7 13.3 148.2 15C149.7 16.7 150.9 18.8 151.7 21.1C152.5 23.4 152.9 25.9 152.9 28.5C152.9 31.4 152.5 34.1 151.6 36.4C150.7 38.7 149.5 40.8 147.8 42.5C146.2 44.2 144.2 45.5 141.9 46.4C139.6 47.3 137 47.8 134.2 47.8L120.7 47.7ZM146.8 28.5C146.8 26.5 146.5 24.6 146 22.9C145.4 21.2 144.6 19.8 143.5 18.5C142.4 17.3 141.1 16.4 139.5 15.6C137.9 14.9 136.2 14.6 134.2 14.6H126.6V42.3H134.2C136.2 42.3 138 41.9 139.6 41.2C141.2 40.5 142.5 39.5 143.6 38.3C144.7 37.1 145.5 35.6 146 33.9C146.5 32.3 146.8 30.5 146.8 28.5Z" fill="#2767B1"/>
<path d="M191.1 42.4V47.7H164.8V9.4H190.6V14.7H170.8V25.6H187.9V30.6H170.8V42.3L191.1 42.4Z" fill="#2767B1"/>
<path d="M68.8 42.4L43.3 28.1L21.9 40.9L45.8 56.2L68.8 42.4Z" fill="#4590CD"/>
<path d="M67.9 13.4L45.8 0L21.9 15.5V40.9L67.9 13.4Z" fill="#2767B1"/>
</svg>
